<?xml version="1.0" standalone="no"?>
<!DOCTYPE svg PUBLIC "-//W3C//DTD SVG 20010904//EN"
 "http://www.w3.org/TR/2001/REC-SVG-20010904/DTD/svg10.dtd">
<svg version="1.0" xmlns="http://www.w3.org/2000/svg"
 width="1280.000000pt" height="1045.000000pt" viewBox="0 0 1280.000000 1045.000000"
 preserveAspectRatio="xMidYMid meet">
<metadata>
Created by potrace 1.15, written by Peter Selinger 2001-2017
</metadata>
<g transform="translate(0.000000,1045.000000) scale(0.100000,-0.100000)"
fill="#000000" stroke="none">
<path d="M8315 10440 c-172 -27 -311 -81 -503 -193 -70 -41 -197 -111 -282
-157 -522 -280 -731 -475 -801 -748 -28 -112 -26 -135 19 -172 75 -63 228
-124 484 -194 249 -68 367 -68 503 -1 96 46 167 113 281 263 54 70 149 179
213 243 185 184 328 259 501 261 101 2 170 -13 266 -57 204 -93 335 -219 585
-565 206 -285 315 -405 623 -683 104 -95 377 -343 605 -551 460 -420 812 -736
1029 -925 78 -69 139 -128 135 -132 -5 -4 -226 -134 -493 -289 -1663 -968
-1900 -1123 -2640 -1715 -350 -280 -503 -384 -725 -491 -287 -139 -474 -174
-1025 -194 -162 -6 -344 -15 -405 -21 -216 -21 -501 -80 -1055 -221 -195 -49
-537 -134 -760 -188 -832 -201 -1456 -375 -2019 -562 -160 -53 -249 -78 -257
-72 -8 5 -182 268 -387 584 -205 316 -557 856 -782 1200 -393 602 -490 759
-679 1103 l-86 159 32 66 c33 67 33 67 32 217 -1 170 -21 286 -79 462 -109
327 -277 516 -444 500 -60 -5 -115 -29 -166 -71 l-30 -24 1 -164 c0 -148 3
-179 37 -343 178 -857 482 -1651 935 -2439 503 -877 936 -1483 1392 -1951 92
-93 181 -193 199 -222 50 -80 110 -128 234 -188 84 -40 125 -66 155 -99 75
-82 91 -125 181 -496 128 -525 280 -848 505 -1070 139 -138 274 -208 486 -256
374 -83 827 -49 1475 112 235 59 361 102 522 179 285 136 470 271 729 529 274
274 428 479 568 756 97 191 163 359 286 735 187 568 218 649 288 751 74 110
163 178 289 220 108 36 199 37 269 1 98 -50 123 -88 323 -510 203 -429 474
-644 864 -687 345 -38 912 115 1332 361 185 108 324 215 476 368 442 443 728
987 893 1701 45 198 77 386 121 731 53 419 71 516 145 780 72 256 84 356 85
683 l0 288 -181 174 c-189 181 -493 498 -1004 1044 -737 789 -1260 1273 -1733
1603 -456 318 -798 488 -1123 557 -113 24 -345 34 -439 20z m413 -55 c382 -73
852 -322 1347 -714 494 -391 816 -701 1644 -1586 206 -220 489 -515 628 -655
139 -141 253 -258 253 -260 0 -3 -30 -21 -66 -40 l-66 -35 -201 205 c-110 113
-383 399 -605 635 -963 1023 -1520 1534 -2062 1890 -465 306 -784 439 -1081
452 -194 9 -327 -21 -514 -113 -103 -51 -160 -88 -498 -320 -72 -50 -217 -138
-322 -194 -224 -121 -250 -137 -332 -202 -35 -27 -63 -47 -63 -43 0 4 16 37
35 74 95 180 278 333 635 528 80 44 205 115 279 158 251 146 415 211 586 234
93 13 300 6 403 -14z m-73 -140 c324 -58 748 -280 1240 -648 437 -327 847
-717 1624 -1542 233 -247 539 -566 680 -707 164 -165 252 -261 246 -267 -6 -5
-99 -62 -209 -126 -197 -115 -199 -116 -220 -97 -11 10 -95 83 -186 163 -187
163 -580 516 -840 754 -96 88 -317 286 -490 440 -485 430 -651 604 -874 910
-143 196 -257 335 -339 411 -181 170 -347 245 -541 245 -252 1 -412 -104 -712
-467 -156 -189 -222 -252 -307 -293 -134 -66 -260 -66 -527 2 -239 61 -364
114 -426 178 -28 29 -28 30 -16 87 10 50 18 64 65 108 74 69 159 124 371 238
98 53 229 131 290 173 431 298 579 382 757 428 113 29 288 33 414 10z m-8375
-2930 c155 -55 310 -321 381 -658 17 -77 22 -138 23 -252 1 -134 -1 -155 -21
-197 -12 -27 -29 -48 -37 -48 -17 0 -142 242 -289 560 -109 238 -161 370 -176
456 -12 64 -8 87 17 117 14 15 13 17 -1 17 -29 0 -40 -39 -34 -114 11 -141
128 -423 342 -827 63 -120 115 -224 115 -233 0 -9 4 -16 9 -16 4 0 23 -28 41
-62 191 -361 374 -668 634 -1058 172 -260 638 -973 1090 -1668 97 -150 176
-281 174 -290 -2 -11 -36 -28 -96 -51 -90 -32 -94 -33 -107 -15 -359 489 -459
643 -1093 1691 -803 1326 -1014 1697 -1105 1938 -75 198 -113 398 -104 554 4
90 6 96 33 118 33 26 97 51 135 52 15 1 46 -6 69 -14z m12408 -224 c60 -56 62
-60 62 -107 l0 -49 -168 -75 c-385 -172 -929 -453 -1352 -698 -383 -222 -642
-387 -1405 -895 -578 -385 -723 -488 -1013 -720 -394 -315 -516 -393 -739
-470 -195 -69 -363 -95 -803 -127 -672 -49 -1147 -128 -1875 -315 -729 -187
-1328 -380 -2444 -790 -271 -99 -379 -135 -390 -128 -19 11 -181 210 -181 222
0 10 367 138 661 230 311 97 559 170 874 256 399 109 2299 580 2455 609 210
38 380 54 705 66 357 13 479 23 641 55 287 58 555 189 882 432 64 47 243 186
397 308 314 248 406 317 615 462 317 220 785 505 1760 1073 305 178 708 412
895 521 187 109 345 198 350 198 6 0 38 -26 73 -58z m69 -393 c-8 -263 -22
-362 -92 -648 -73 -303 -99 -454 -160 -905 -128 -956 -401 -1622 -888 -2167
-314 -351 -758 -611 -1272 -743 -506 -130 -891 -64 -1160 200 -109 107 -179
217 -292 457 -111 238 -161 326 -221 390 -179 191 -520 116 -704 -155 -71
-104 -114 -214 -262 -658 -166 -502 -204 -603 -301 -794 -144 -285 -312 -520
-535 -749 -439 -450 -838 -651 -1598 -805 -534 -109 -1008 -106 -1297 9 -235
93 -420 279 -563 565 -99 199 -188 469 -257 780 -77 343 -127 421 -336 530
-136 71 -189 118 -229 199 -39 80 -51 165 -44 316 7 152 8 157 47 173 75 32
1102 402 1317 475 1197 407 2133 641 2915 726 77 9 268 25 425 36 335 24 484
42 637 76 155 34 221 57 348 119 142 69 276 159 505 341 481 383 863 650 1695
1184 782 502 1414 855 2060 1150 99 45 194 88 210 96 61 28 59 34 52 -198z
m-12480 -419 c93 -177 183 -332 598 -1029 831 -1397 1230 -2014 1585 -2450
l78 -95 -5 -180 c-3 -103 -1 -198 5 -223 5 -23 6 -42 2 -42 -10 0 -290 294
-381 400 -279 326 -551 706 -851 1190 -567 916 -909 1673 -1122 2488 -73 276
-75 296 -23 176 24 -56 75 -161 114 -235z"/>
<path d="M11671 6159 c-190 -37 -360 -131 -771 -424 -102 -73 -313 -208 -470
-301 -593 -349 -820 -511 -1060 -753 -407 -411 -530 -847 -373 -1326 35 -107
131 -324 189 -427 113 -200 256 -377 329 -408 23 -10 64 -34 91 -53 224 -159
519 -190 835 -87 336 110 898 504 1189 835 384 436 584 900 666 1540 23 178
26 668 6 785 -34 187 -77 310 -141 404 -17 24 -31 51 -31 59 0 19 -83 93 -132
118 -87 44 -218 60 -327 38z m273 -82 c89 -41 123 -71 130 -118 36 -223 46
-699 21 -960 -52 -543 -207 -1020 -458 -1408 -273 -422 -762 -826 -1204 -995
-166 -63 -282 -87 -449 -93 -165 -6 -235 2 -367 43 -77 24 -87 30 -157 103
-204 209 -419 657 -460 959 -51 375 94 721 446 1062 242 235 425 363 1074 749
142 84 354 222 478 311 330 235 470 313 643 360 103 28 225 23 303 -13z m235
-204 c39 -78 78 -205 98 -321 25 -141 25 -604 0 -792 -66 -489 -211 -898 -445
-1250 -199 -300 -423 -520 -787 -775 -313 -219 -558 -337 -792 -381 -120 -22
-310 -15 -408 16 -66 21 -230 99 -222 106 1 2 27 -4 57 -12 87 -25 354 -30
465 -10 340 63 674 232 1005 509 471 393 757 859 915 1490 105 419 134 956 79
1425 -4 28 -4 52 0 52 3 0 19 -26 35 -57z"/>
<path d="M6575 3669 c-128 -12 -424 -63 -600 -103 -249 -57 -829 -204 -1015
-258 -489 -141 -933 -340 -1241 -554 -371 -259 -460 -709 -279 -1411 101 -390
269 -739 455 -941 41 -44 74 -72 84 -70 9 2 39 -12 66 -29 138 -89 269 -123
495 -130 378 -12 929 103 1348 282 703 300 1286 894 1507 1534 96 281 120 435
120 796 0 255 -2 288 -23 375 -22 95 -74 219 -112 267 -11 14 -20 34 -20 43 0
28 -98 110 -175 146 -105 48 -199 64 -372 63 -81 -1 -188 -6 -238 -10z m519
-83 c74 -25 177 -84 193 -109 10 -16 4 -612 -8 -792 -24 -369 -81 -610 -201
-850 -161 -324 -457 -632 -844 -881 -150 -96 -457 -247 -637 -314 -464 -170
-981 -260 -1440 -248 l-167 4 -50 49 c-258 254 -506 935 -527 1446 -16 390 98
653 357 826 261 174 614 341 975 461 193 65 374 114 820 226 524 131 729 171
1065 210 19 2 114 3 210 2 161 -2 181 -5 254 -30z m317 -250 c17 -33 42 -103
56 -155 23 -85 26 -122 30 -322 3 -135 1 -275 -6 -345 -43 -444 -215 -854
-513 -1222 -90 -112 -298 -316 -415 -410 -382 -303 -777 -485 -1323 -610 -526
-121 -858 -119 -1110 6 l-95 47 240 7 c463 12 808 71 1213 207 654 219 1174
576 1499 1029 272 379 363 762 363 1522 0 147 3 282 6 300 8 36 10 35 55 -54z"/>
</g>
</svg>
